<mxfile host="app.diagrams.net" modified="2024-07-02T16:12:16.306Z" agent="Mozilla/5.0 (Windows NT 10.0; Win64; x64) AppleWebKit/537.36 (KHTML, like Gecko) Chrome/126.0.0.0 Safari/537.36 Edg/126.0.0.0" etag="-TsmmJo_VMoZf9lrVrUX" version="24.6.4" type="github">
  <diagram name="Copie de Page-1" id="EhqOxqEbqIXf-8VI_V93">
    <mxGraphModel dx="2730" dy="2316" grid="1" gridSize="10" guides="1" tooltips="1" connect="1" arrows="1" fold="1" page="1" pageScale="1" pageWidth="1169" pageHeight="826" background="none" math="0" shadow="0">
      <root>
        <mxCell id="ZWHLpiZSWTz1R2_QuIJr-0" />
        <mxCell id="ZWHLpiZSWTz1R2_QuIJr-1" parent="ZWHLpiZSWTz1R2_QuIJr-0" />
        <mxCell id="ZWHLpiZSWTz1R2_QuIJr-2" value="UI" style="swimlane;whiteSpace=wrap;html=1;" parent="ZWHLpiZSWTz1R2_QuIJr-1" vertex="1">
          <mxGeometry y="-730" width="780" height="1520" as="geometry" />
        </mxCell>
        <mxCell id="ZWHLpiZSWTz1R2_QuIJr-3" value="" style="ellipse;fillColor=strokeColor;html=1;" parent="ZWHLpiZSWTz1R2_QuIJr-2" vertex="1">
          <mxGeometry x="101" y="166" width="30" height="30" as="geometry" />
        </mxCell>
        <mxCell id="ZWHLpiZSWTz1R2_QuIJr-4" value="" style="html=1;verticalAlign=bottom;labelBackgroundColor=none;endArrow=block;endFill=1;rounded=0;exitX=0.5;exitY=1;exitDx=0;exitDy=0;" parent="ZWHLpiZSWTz1R2_QuIJr-2" source="ZWHLpiZSWTz1R2_QuIJr-3" edge="1">
          <mxGeometry width="160" relative="1" as="geometry">
            <mxPoint x="120" y="410" as="sourcePoint" />
            <mxPoint x="115" y="260" as="targetPoint" />
          </mxGeometry>
        </mxCell>
        <mxCell id="ZWHLpiZSWTz1R2_QuIJr-5" value="Remplir le Formulaire de Commande de la MOJ En - tète par défaut" style="html=1;dashed=0;rounded=1;absoluteArcSize=1;arcSize=20;verticalAlign=middle;align=center;whiteSpace=wrap;" parent="ZWHLpiZSWTz1R2_QuIJr-2" vertex="1">
          <mxGeometry x="40" y="260" width="160" height="50" as="geometry" />
        </mxCell>
        <mxCell id="ZWHLpiZSWTz1R2_QuIJr-6" value="*" style="text;resizeWidth=0;resizeHeight=0;points=[];part=1;verticalAlign=middle;align=center;html=1;" parent="ZWHLpiZSWTz1R2_QuIJr-5" vertex="1">
          <mxGeometry x="1" y="0.5" width="20" height="20" relative="1" as="geometry">
            <mxPoint x="-20" y="-10" as="offset" />
          </mxGeometry>
        </mxCell>
        <mxCell id="ZWHLpiZSWTz1R2_QuIJr-7" value="" style="html=1;verticalAlign=bottom;endArrow=block;curved=0;rounded=0;" parent="ZWHLpiZSWTz1R2_QuIJr-2" edge="1">
          <mxGeometry width="80" relative="1" as="geometry">
            <mxPoint x="200" y="289" as="sourcePoint" />
            <mxPoint x="250" y="289" as="targetPoint" />
          </mxGeometry>
        </mxCell>
        <mxCell id="ZWHLpiZSWTz1R2_QuIJr-8" value="Actor" style="shape=umlActor;verticalLabelPosition=bottom;verticalAlign=top;html=1;" parent="ZWHLpiZSWTz1R2_QuIJr-2" vertex="1">
          <mxGeometry x="101" y="80" width="30" height="60" as="geometry" />
        </mxCell>
        <mxCell id="ZWHLpiZSWTz1R2_QuIJr-9" value="&lt;font style=&quot;font-size: 13px;&quot;&gt;A L&#39;initiation de la commande d&#39;une MOJ&lt;/font&gt;" style="text;html=1;align=center;verticalAlign=middle;whiteSpace=wrap;rounded=0;" parent="ZWHLpiZSWTz1R2_QuIJr-2" vertex="1">
          <mxGeometry y="30" width="120" height="50" as="geometry" />
        </mxCell>
        <mxCell id="ZWHLpiZSWTz1R2_QuIJr-10" value="" style="html=1;points=[];perimeter=orthogonalPerimeter;fillColor=strokeColor;" parent="ZWHLpiZSWTz1R2_QuIJr-2" vertex="1">
          <mxGeometry x="251" y="196" width="9" height="394" as="geometry" />
        </mxCell>
        <mxCell id="_bCDL0HvLNY4-5tJD9Ad-2" value="&lt;font style=&quot;font-size: 10px;&quot;&gt;Inputs du formulaire&lt;/font&gt;" style="shape=note2;boundedLbl=1;whiteSpace=wrap;html=1;size=7;verticalAlign=top;align=center;strokeColor=#FFF2CC;fillColor=#FFF2CC;" parent="ZWHLpiZSWTz1R2_QuIJr-2" vertex="1">
          <mxGeometry x="200.5" y="150" width="120" height="35" as="geometry" />
        </mxCell>
        <mxCell id="_bCDL0HvLNY4-5tJD9Ad-3" value="&lt;font style=&quot;font-size: 11px;&quot;&gt;Champs inactifs&lt;/font&gt;" style="rounded=1;whiteSpace=wrap;html=1;arcSize=0;" parent="ZWHLpiZSWTz1R2_QuIJr-2" vertex="1">
          <mxGeometry x="310" y="207.5" width="100" height="30" as="geometry" />
        </mxCell>
        <mxCell id="_bCDL0HvLNY4-5tJD9Ad-7" value="" style="group" parent="ZWHLpiZSWTz1R2_QuIJr-2" vertex="1" connectable="0">
          <mxGeometry x="464.5" y="160" width="120" height="125" as="geometry" />
        </mxCell>
        <mxCell id="_bCDL0HvLNY4-5tJD9Ad-1" value="&lt;font style=&quot;font-size: 10px;&quot;&gt;Centre d&#39;embauche&lt;/font&gt;" style="rounded=1;whiteSpace=wrap;html=1;" parent="_bCDL0HvLNY4-5tJD9Ad-7" vertex="1">
          <mxGeometry width="120" height="15" as="geometry" />
        </mxCell>
        <mxCell id="_bCDL0HvLNY4-5tJD9Ad-4" value="&lt;font style=&quot;font-size: 10px;&quot;&gt;Id_Mission&lt;/font&gt;" style="rounded=1;whiteSpace=wrap;html=1;" parent="_bCDL0HvLNY4-5tJD9Ad-7" vertex="1">
          <mxGeometry y="32" width="120" height="15" as="geometry" />
        </mxCell>
        <mxCell id="_bCDL0HvLNY4-5tJD9Ad-5" value="&lt;font style=&quot;font-size: 10px;&quot;&gt;Service_User&lt;/font&gt;" style="rounded=1;whiteSpace=wrap;html=1;" parent="_bCDL0HvLNY4-5tJD9Ad-7" vertex="1">
          <mxGeometry y="67" width="120" height="14" as="geometry" />
        </mxCell>
        <mxCell id="_bCDL0HvLNY4-5tJD9Ad-6" value="&lt;font style=&quot;font-size: 10px;&quot;&gt;Section_Compta&lt;/font&gt;" style="rounded=1;whiteSpace=wrap;html=1;" parent="_bCDL0HvLNY4-5tJD9Ad-7" vertex="1">
          <mxGeometry y="105" width="120" height="20" as="geometry" />
        </mxCell>
        <mxCell id="_bCDL0HvLNY4-5tJD9Ad-8" value="" style="html=1;verticalAlign=bottom;endArrow=block;curved=0;rounded=0;entryX=0;entryY=0.636;entryDx=0;entryDy=0;entryPerimeter=0;exitX=1;exitY=0.292;exitDx=0;exitDy=0;exitPerimeter=0;" parent="ZWHLpiZSWTz1R2_QuIJr-2" source="ZWHLpiZSWTz1R2_QuIJr-10" target="_bCDL0HvLNY4-5tJD9Ad-3" edge="1">
          <mxGeometry width="80" relative="1" as="geometry">
            <mxPoint x="270" y="260" as="sourcePoint" />
            <mxPoint x="320.5" y="260" as="targetPoint" />
          </mxGeometry>
        </mxCell>
        <mxCell id="_bCDL0HvLNY4-5tJD9Ad-9" value="" style="html=1;verticalAlign=bottom;endArrow=block;curved=0;rounded=0;entryX=0;entryY=0.75;entryDx=0;entryDy=0;exitX=0.998;exitY=0.308;exitDx=0;exitDy=0;exitPerimeter=0;" parent="ZWHLpiZSWTz1R2_QuIJr-2" source="_bCDL0HvLNY4-5tJD9Ad-3" target="_bCDL0HvLNY4-5tJD9Ad-1" edge="1">
          <mxGeometry width="80" relative="1" as="geometry">
            <mxPoint x="430" y="198" as="sourcePoint" />
            <mxPoint x="470" y="175" as="targetPoint" />
          </mxGeometry>
        </mxCell>
        <mxCell id="_bCDL0HvLNY4-5tJD9Ad-10" value="" style="html=1;verticalAlign=bottom;endArrow=block;curved=0;rounded=0;entryX=0;entryY=0.5;entryDx=0;entryDy=0;exitX=1;exitY=0.5;exitDx=0;exitDy=0;" parent="ZWHLpiZSWTz1R2_QuIJr-2" source="_bCDL0HvLNY4-5tJD9Ad-3" target="_bCDL0HvLNY4-5tJD9Ad-4" edge="1">
          <mxGeometry width="80" relative="1" as="geometry">
            <mxPoint x="430" y="219" as="sourcePoint" />
            <mxPoint x="470" y="196" as="targetPoint" />
          </mxGeometry>
        </mxCell>
        <mxCell id="_bCDL0HvLNY4-5tJD9Ad-11" value="" style="html=1;verticalAlign=bottom;endArrow=block;curved=0;rounded=0;entryX=0;entryY=0.5;entryDx=0;entryDy=0;exitX=1.012;exitY=0.487;exitDx=0;exitDy=0;exitPerimeter=0;" parent="ZWHLpiZSWTz1R2_QuIJr-2" source="_bCDL0HvLNY4-5tJD9Ad-3" target="_bCDL0HvLNY4-5tJD9Ad-5" edge="1">
          <mxGeometry width="80" relative="1" as="geometry">
            <mxPoint x="430" y="227" as="sourcePoint" />
            <mxPoint x="470" y="204" as="targetPoint" />
          </mxGeometry>
        </mxCell>
        <mxCell id="_bCDL0HvLNY4-5tJD9Ad-12" value="" style="html=1;verticalAlign=bottom;endArrow=block;curved=0;rounded=0;entryX=0;entryY=0.5;entryDx=0;entryDy=0;exitX=1.004;exitY=0.631;exitDx=0;exitDy=0;exitPerimeter=0;" parent="ZWHLpiZSWTz1R2_QuIJr-2" source="_bCDL0HvLNY4-5tJD9Ad-3" target="_bCDL0HvLNY4-5tJD9Ad-6" edge="1">
          <mxGeometry width="80" relative="1" as="geometry">
            <mxPoint x="441" y="232" as="sourcePoint" />
            <mxPoint x="475" y="244" as="targetPoint" />
          </mxGeometry>
        </mxCell>
        <mxCell id="_bCDL0HvLNY4-5tJD9Ad-21" value="" style="html=1;verticalAlign=bottom;endArrow=block;curved=0;rounded=0;entryX=0;entryY=0.5;entryDx=0;entryDy=0;exitX=0.864;exitY=0.798;exitDx=0;exitDy=0;exitPerimeter=0;" parent="ZWHLpiZSWTz1R2_QuIJr-2" source="ZWHLpiZSWTz1R2_QuIJr-10" target="_bCDL0HvLNY4-5tJD9Ad-13" edge="1">
          <mxGeometry width="80" relative="1" as="geometry">
            <mxPoint x="270" y="321" as="sourcePoint" />
            <mxPoint x="320" y="237" as="targetPoint" />
          </mxGeometry>
        </mxCell>
        <mxCell id="_bCDL0HvLNY4-5tJD9Ad-29" value="" style="group" parent="ZWHLpiZSWTz1R2_QuIJr-2" vertex="1" connectable="0">
          <mxGeometry x="321" y="580" width="264.5" height="176" as="geometry" />
        </mxCell>
        <mxCell id="_bCDL0HvLNY4-5tJD9Ad-13" value="Champs Select" style="rounded=1;whiteSpace=wrap;html=1;arcSize=0;" parent="_bCDL0HvLNY4-5tJD9Ad-29" vertex="1">
          <mxGeometry y="73" width="120" height="30" as="geometry" />
        </mxCell>
        <mxCell id="_bCDL0HvLNY4-5tJD9Ad-28" value="" style="group" parent="_bCDL0HvLNY4-5tJD9Ad-29" vertex="1" connectable="0">
          <mxGeometry x="144.5" width="120" height="176" as="geometry" />
        </mxCell>
        <mxCell id="_bCDL0HvLNY4-5tJD9Ad-15" value="&lt;font style=&quot;font-size: 10px;&quot;&gt;Valideur_ser&lt;/font&gt;" style="rounded=1;whiteSpace=wrap;html=1;" parent="_bCDL0HvLNY4-5tJD9Ad-28" vertex="1">
          <mxGeometry width="120" height="14" as="geometry" />
        </mxCell>
        <mxCell id="_bCDL0HvLNY4-5tJD9Ad-16" value="&lt;font style=&quot;font-size: 10px;&quot;&gt;Client&lt;/font&gt;" style="rounded=1;whiteSpace=wrap;html=1;" parent="_bCDL0HvLNY4-5tJD9Ad-28" vertex="1">
          <mxGeometry y="32" width="120" height="14" as="geometry" />
        </mxCell>
        <mxCell id="_bCDL0HvLNY4-5tJD9Ad-17" value="&lt;font style=&quot;font-size: 10px;&quot;&gt;Type_mission&lt;/font&gt;" style="rounded=1;whiteSpace=wrap;html=1;" parent="_bCDL0HvLNY4-5tJD9Ad-28" vertex="1">
          <mxGeometry y="66" width="120" height="14" as="geometry" />
        </mxCell>
        <mxCell id="_bCDL0HvLNY4-5tJD9Ad-18" value="&lt;font style=&quot;font-size: 10px;&quot;&gt;site_mission&lt;/font&gt;" style="rounded=1;whiteSpace=wrap;html=1;" parent="_bCDL0HvLNY4-5tJD9Ad-28" vertex="1">
          <mxGeometry y="99" width="120" height="14" as="geometry" />
        </mxCell>
        <mxCell id="_bCDL0HvLNY4-5tJD9Ad-19" value="&lt;span style=&quot;font-size: 10px;&quot;&gt;Presta_rea&lt;/span&gt;" style="rounded=1;whiteSpace=wrap;html=1;" parent="_bCDL0HvLNY4-5tJD9Ad-28" vertex="1">
          <mxGeometry y="132" width="120" height="14" as="geometry" />
        </mxCell>
        <mxCell id="_bCDL0HvLNY4-5tJD9Ad-20" value="&lt;font style=&quot;font-size: 10px;&quot;&gt;Produit_manipuler&lt;/font&gt;" style="rounded=1;whiteSpace=wrap;html=1;" parent="_bCDL0HvLNY4-5tJD9Ad-28" vertex="1">
          <mxGeometry y="162" width="120" height="14" as="geometry" />
        </mxCell>
        <mxCell id="_bCDL0HvLNY4-5tJD9Ad-39" value="" style="html=1;verticalAlign=bottom;endArrow=block;curved=0;rounded=0;entryX=0.004;entryY=0.404;entryDx=0;entryDy=0;exitX=1;exitY=0.25;exitDx=0;exitDy=0;entryPerimeter=0;" parent="_bCDL0HvLNY4-5tJD9Ad-29" source="_bCDL0HvLNY4-5tJD9Ad-13" target="_bCDL0HvLNY4-5tJD9Ad-15" edge="1">
          <mxGeometry width="80" relative="1" as="geometry">
            <mxPoint x="110.25" y="73" as="sourcePoint" />
            <mxPoint x="154.25" y="56" as="targetPoint" />
          </mxGeometry>
        </mxCell>
        <mxCell id="_bCDL0HvLNY4-5tJD9Ad-40" value="" style="html=1;verticalAlign=bottom;endArrow=block;curved=0;rounded=0;entryX=0;entryY=0.5;entryDx=0;entryDy=0;exitX=0.999;exitY=0.311;exitDx=0;exitDy=0;exitPerimeter=0;" parent="_bCDL0HvLNY4-5tJD9Ad-29" source="_bCDL0HvLNY4-5tJD9Ad-13" target="_bCDL0HvLNY4-5tJD9Ad-16" edge="1">
          <mxGeometry width="80" relative="1" as="geometry">
            <mxPoint x="119" y="80" as="sourcePoint" />
            <mxPoint x="155" y="16" as="targetPoint" />
          </mxGeometry>
        </mxCell>
        <mxCell id="_bCDL0HvLNY4-5tJD9Ad-41" value="" style="html=1;verticalAlign=bottom;endArrow=block;curved=0;rounded=0;entryX=0;entryY=0.5;entryDx=0;entryDy=0;exitX=1.003;exitY=0.467;exitDx=0;exitDy=0;exitPerimeter=0;" parent="_bCDL0HvLNY4-5tJD9Ad-29" source="_bCDL0HvLNY4-5tJD9Ad-13" target="_bCDL0HvLNY4-5tJD9Ad-17" edge="1">
          <mxGeometry width="80" relative="1" as="geometry">
            <mxPoint x="140" y="101" as="sourcePoint" />
            <mxPoint x="165" y="26" as="targetPoint" />
          </mxGeometry>
        </mxCell>
        <mxCell id="_bCDL0HvLNY4-5tJD9Ad-42" value="" style="html=1;verticalAlign=bottom;endArrow=block;curved=0;rounded=0;entryX=0;entryY=0.5;entryDx=0;entryDy=0;exitX=0.999;exitY=0.574;exitDx=0;exitDy=0;exitPerimeter=0;" parent="_bCDL0HvLNY4-5tJD9Ad-29" source="_bCDL0HvLNY4-5tJD9Ad-13" target="_bCDL0HvLNY4-5tJD9Ad-18" edge="1">
          <mxGeometry width="80" relative="1" as="geometry">
            <mxPoint x="130" y="97" as="sourcePoint" />
            <mxPoint x="155" y="83" as="targetPoint" />
          </mxGeometry>
        </mxCell>
        <mxCell id="_bCDL0HvLNY4-5tJD9Ad-43" value="" style="html=1;verticalAlign=bottom;endArrow=block;curved=0;rounded=0;exitX=1.001;exitY=0.67;exitDx=0;exitDy=0;exitPerimeter=0;entryX=0;entryY=0.5;entryDx=0;entryDy=0;" parent="_bCDL0HvLNY4-5tJD9Ad-29" source="_bCDL0HvLNY4-5tJD9Ad-13" target="_bCDL0HvLNY4-5tJD9Ad-19" edge="1">
          <mxGeometry width="80" relative="1" as="geometry">
            <mxPoint x="119" y="90" as="sourcePoint" />
            <mxPoint x="149" y="140" as="targetPoint" />
          </mxGeometry>
        </mxCell>
        <mxCell id="_bCDL0HvLNY4-5tJD9Ad-44" value="" style="html=1;verticalAlign=bottom;endArrow=block;curved=0;rounded=0;entryX=0;entryY=0.5;entryDx=0;entryDy=0;exitX=1;exitY=0.75;exitDx=0;exitDy=0;" parent="_bCDL0HvLNY4-5tJD9Ad-29" source="_bCDL0HvLNY4-5tJD9Ad-13" target="_bCDL0HvLNY4-5tJD9Ad-20" edge="1">
          <mxGeometry width="80" relative="1" as="geometry">
            <mxPoint x="140" y="110" as="sourcePoint" />
            <mxPoint x="165" y="126" as="targetPoint" />
          </mxGeometry>
        </mxCell>
        <mxCell id="_bCDL0HvLNY4-5tJD9Ad-31" value="" style="group" parent="ZWHLpiZSWTz1R2_QuIJr-2" vertex="1" connectable="0">
          <mxGeometry x="321" y="350" width="379" height="174" as="geometry" />
        </mxCell>
        <mxCell id="_bCDL0HvLNY4-5tJD9Ad-14" value="&lt;font style=&quot;font-size: 11px;&quot;&gt;A remplir / cocher&lt;/font&gt;" style="rounded=1;whiteSpace=wrap;html=1;arcSize=0;" parent="_bCDL0HvLNY4-5tJD9Ad-31" vertex="1">
          <mxGeometry y="72" width="100" height="30" as="geometry" />
        </mxCell>
        <mxCell id="_bCDL0HvLNY4-5tJD9Ad-30" value="" style="group" parent="_bCDL0HvLNY4-5tJD9Ad-31" vertex="1" connectable="0">
          <mxGeometry x="143.5" width="235.5" height="174" as="geometry" />
        </mxCell>
        <mxCell id="_bCDL0HvLNY4-5tJD9Ad-22" value="&lt;font style=&quot;font-size: 10px;&quot;&gt;lib_mission&lt;/font&gt;" style="rounded=1;whiteSpace=wrap;html=1;" parent="_bCDL0HvLNY4-5tJD9Ad-30" vertex="1">
          <mxGeometry width="120" height="14" as="geometry" />
        </mxCell>
        <mxCell id="_bCDL0HvLNY4-5tJD9Ad-23" value="&lt;font style=&quot;font-size: 10px;&quot;&gt;date_rea&lt;/font&gt;" style="rounded=1;whiteSpace=wrap;html=1;" parent="_bCDL0HvLNY4-5tJD9Ad-30" vertex="1">
          <mxGeometry y="31" width="120" height="14" as="geometry" />
        </mxCell>
        <mxCell id="_bCDL0HvLNY4-5tJD9Ad-24" value="&lt;span style=&quot;font-size: 10px;&quot;&gt;qteUO_reelle&lt;/span&gt;" style="rounded=1;whiteSpace=wrap;html=1;" parent="_bCDL0HvLNY4-5tJD9Ad-30" vertex="1">
          <mxGeometry y="63" width="120" height="14" as="geometry" />
        </mxCell>
        <mxCell id="_bCDL0HvLNY4-5tJD9Ad-25" value="&lt;span style=&quot;font-size: 10px;&quot;&gt;qteUO_manipuler&lt;/span&gt;" style="rounded=1;whiteSpace=wrap;html=1;" parent="_bCDL0HvLNY4-5tJD9Ad-30" vertex="1">
          <mxGeometry y="95" width="120" height="14" as="geometry" />
        </mxCell>
        <mxCell id="_bCDL0HvLNY4-5tJD9Ad-26" value="&lt;span style=&quot;font-size: 10px;&quot;&gt;Commentaire&lt;/span&gt;" style="rounded=1;whiteSpace=wrap;html=1;" parent="_bCDL0HvLNY4-5tJD9Ad-30" vertex="1">
          <mxGeometry y="127" width="120" height="14" as="geometry" />
        </mxCell>
        <mxCell id="_bCDL0HvLNY4-5tJD9Ad-27" value="&lt;span style=&quot;font-size: 10px;&quot;&gt;est_de_nuit&lt;/span&gt;" style="rounded=1;whiteSpace=wrap;html=1;" parent="_bCDL0HvLNY4-5tJD9Ad-30" vertex="1">
          <mxGeometry y="160" width="120" height="14" as="geometry" />
        </mxCell>
        <mxCell id="_bCDL0HvLNY4-5tJD9Ad-48" value="&lt;i style=&quot;&quot;&gt;&lt;b style=&quot;&quot;&gt;&lt;font style=&quot;font-size: 6px;&quot;&gt;Unite_mesure&lt;/font&gt;&lt;/b&gt;&lt;/i&gt;" style="html=1;align=center;verticalAlign=middle;dashed=0;whiteSpace=wrap;strokeColor=#FFFFFF;fillColor=#CCFFCC;" parent="_bCDL0HvLNY4-5tJD9Ad-30" vertex="1">
          <mxGeometry x="95.5" y="67" width="60" height="10" as="geometry" />
        </mxCell>
        <mxCell id="_bCDL0HvLNY4-5tJD9Ad-49" value="&lt;i style=&quot;&quot;&gt;&lt;b style=&quot;&quot;&gt;&lt;font style=&quot;font-size: 6px;&quot;&gt;Unite_mesure&lt;/font&gt;&lt;/b&gt;&lt;/i&gt;" style="html=1;align=center;verticalAlign=middle;dashed=0;whiteSpace=wrap;strokeColor=#FFFFFF;fillColor=#CCFFCC;" parent="_bCDL0HvLNY4-5tJD9Ad-30" vertex="1">
          <mxGeometry x="105.5" y="99" width="60" height="10" as="geometry" />
        </mxCell>
        <mxCell id="_bCDL0HvLNY4-5tJD9Ad-33" value="" style="html=1;verticalAlign=bottom;endArrow=block;curved=0;rounded=0;entryX=0;entryY=0.5;entryDx=0;entryDy=0;exitX=0.999;exitY=0.398;exitDx=0;exitDy=0;exitPerimeter=0;" parent="_bCDL0HvLNY4-5tJD9Ad-31" source="_bCDL0HvLNY4-5tJD9Ad-14" target="_bCDL0HvLNY4-5tJD9Ad-22" edge="1">
          <mxGeometry width="80" relative="1" as="geometry">
            <mxPoint x="79" y="50" as="sourcePoint" />
            <mxPoint x="133" y="62" as="targetPoint" />
          </mxGeometry>
        </mxCell>
        <mxCell id="_bCDL0HvLNY4-5tJD9Ad-34" value="" style="html=1;verticalAlign=bottom;endArrow=block;curved=0;rounded=0;entryX=0;entryY=0.5;entryDx=0;entryDy=0;exitX=0.996;exitY=0.366;exitDx=0;exitDy=0;exitPerimeter=0;" parent="_bCDL0HvLNY4-5tJD9Ad-31" source="_bCDL0HvLNY4-5tJD9Ad-14" target="_bCDL0HvLNY4-5tJD9Ad-23" edge="1">
          <mxGeometry width="80" relative="1" as="geometry">
            <mxPoint x="109" y="95" as="sourcePoint" />
            <mxPoint x="154" y="17" as="targetPoint" />
          </mxGeometry>
        </mxCell>
        <mxCell id="_bCDL0HvLNY4-5tJD9Ad-35" value="" style="html=1;verticalAlign=bottom;endArrow=block;curved=0;rounded=0;entryX=0;entryY=0.5;entryDx=0;entryDy=0;exitX=1;exitY=0.5;exitDx=0;exitDy=0;" parent="_bCDL0HvLNY4-5tJD9Ad-31" source="_bCDL0HvLNY4-5tJD9Ad-14" target="_bCDL0HvLNY4-5tJD9Ad-24" edge="1">
          <mxGeometry width="80" relative="1" as="geometry">
            <mxPoint x="119" y="105" as="sourcePoint" />
            <mxPoint x="164" y="27" as="targetPoint" />
          </mxGeometry>
        </mxCell>
        <mxCell id="_bCDL0HvLNY4-5tJD9Ad-37" value="" style="html=1;verticalAlign=bottom;endArrow=block;curved=0;rounded=0;entryX=0;entryY=0.5;entryDx=0;entryDy=0;exitX=1;exitY=0.622;exitDx=0;exitDy=0;exitPerimeter=0;" parent="_bCDL0HvLNY4-5tJD9Ad-31" source="_bCDL0HvLNY4-5tJD9Ad-14" target="_bCDL0HvLNY4-5tJD9Ad-26" edge="1">
          <mxGeometry width="80" relative="1" as="geometry">
            <mxPoint x="139" y="125" as="sourcePoint" />
            <mxPoint x="184" y="47" as="targetPoint" />
          </mxGeometry>
        </mxCell>
        <mxCell id="_bCDL0HvLNY4-5tJD9Ad-38" value="" style="html=1;verticalAlign=bottom;endArrow=block;curved=0;rounded=0;entryX=0;entryY=0.25;entryDx=0;entryDy=0;exitX=1.002;exitY=0.7;exitDx=0;exitDy=0;exitPerimeter=0;" parent="_bCDL0HvLNY4-5tJD9Ad-31" source="_bCDL0HvLNY4-5tJD9Ad-14" target="_bCDL0HvLNY4-5tJD9Ad-27" edge="1">
          <mxGeometry width="80" relative="1" as="geometry">
            <mxPoint x="149" y="135" as="sourcePoint" />
            <mxPoint x="194" y="57" as="targetPoint" />
          </mxGeometry>
        </mxCell>
        <mxCell id="_bCDL0HvLNY4-5tJD9Ad-36" value="" style="html=1;verticalAlign=bottom;endArrow=block;curved=0;rounded=0;entryX=0;entryY=0.5;entryDx=0;entryDy=0;exitX=1.001;exitY=0.628;exitDx=0;exitDy=0;exitPerimeter=0;" parent="_bCDL0HvLNY4-5tJD9Ad-31" source="_bCDL0HvLNY4-5tJD9Ad-14" target="_bCDL0HvLNY4-5tJD9Ad-25" edge="1">
          <mxGeometry width="80" relative="1" as="geometry">
            <mxPoint x="99" y="90" as="sourcePoint" />
            <mxPoint x="174" y="37" as="targetPoint" />
          </mxGeometry>
        </mxCell>
        <mxCell id="_bCDL0HvLNY4-5tJD9Ad-32" value="" style="html=1;verticalAlign=bottom;endArrow=block;curved=0;rounded=0;entryX=0;entryY=0.5;entryDx=0;entryDy=0;exitX=1.188;exitY=0.461;exitDx=0;exitDy=0;exitPerimeter=0;" parent="ZWHLpiZSWTz1R2_QuIJr-2" source="ZWHLpiZSWTz1R2_QuIJr-10" target="_bCDL0HvLNY4-5tJD9Ad-14" edge="1">
          <mxGeometry width="80" relative="1" as="geometry">
            <mxPoint x="272" y="495" as="sourcePoint" />
            <mxPoint x="330" y="738" as="targetPoint" />
          </mxGeometry>
        </mxCell>
        <mxCell id="_bCDL0HvLNY4-5tJD9Ad-53" value="&lt;font style=&quot;font-size: 6px;&quot;&gt;créer lors de l&#39;enregistrement de la commande&amp;nbsp;&lt;/font&gt;" style="html=1;align=center;verticalAlign=middle;dashed=0;whiteSpace=wrap;strokeColor=#C2B89B;fillColor=#CCFFCC;" parent="ZWHLpiZSWTz1R2_QuIJr-2" vertex="1">
          <mxGeometry x="570" y="186" width="150" height="14" as="geometry" />
        </mxCell>
        <mxCell id="_bCDL0HvLNY4-5tJD9Ad-55" value="&lt;span style=&quot;font-size: 6px;&quot;&gt;Récupérer des paramètres du Profil de l&#39;Utilisateur Connecté&lt;/span&gt;" style="html=1;align=center;verticalAlign=middle;dashed=0;whiteSpace=wrap;strokeColor=#C2B89B;fillColor=#CCFFCC;" parent="ZWHLpiZSWTz1R2_QuIJr-2" vertex="1">
          <mxGeometry x="570" y="215.5" width="170" height="14.5" as="geometry" />
        </mxCell>
        <mxCell id="_bCDL0HvLNY4-5tJD9Ad-56" value="&lt;span style=&quot;font-size: 6px;&quot;&gt;??&lt;/span&gt;" style="html=1;align=center;verticalAlign=middle;dashed=0;whiteSpace=wrap;strokeColor=#C2B89B;fillColor=#CCFFCC;" parent="ZWHLpiZSWTz1R2_QuIJr-2" vertex="1">
          <mxGeometry x="570" y="260" width="140" height="14.5" as="geometry" />
        </mxCell>
        <mxCell id="_bCDL0HvLNY4-5tJD9Ad-57" value="&lt;span style=&quot;font-size: 6px;&quot;&gt;par défaut DTLM&lt;/span&gt;" style="html=1;align=center;verticalAlign=middle;dashed=0;whiteSpace=wrap;strokeColor=#C2B89B;fillColor=#CCFFCC;" parent="ZWHLpiZSWTz1R2_QuIJr-2" vertex="1">
          <mxGeometry x="570" y="152" width="70" height="14" as="geometry" />
        </mxCell>
        <mxCell id="_bCDL0HvLNY4-5tJD9Ad-58" value="1" style="ellipse;shadow=1;fillColor=#FFD966;strokeColor=#FFFFFF;" parent="ZWHLpiZSWTz1R2_QuIJr-2" vertex="1">
          <mxGeometry x="150" y="340" width="30" height="30" as="geometry" />
        </mxCell>
        <mxCell id="_bCDL0HvLNY4-5tJD9Ad-59" value="1" style="ellipse;shadow=1;fillColor=#FFD966;strokeColor=#FFFFFF;" parent="ZWHLpiZSWTz1R2_QuIJr-2" vertex="1">
          <mxGeometry x="120" y="910" width="30" height="30" as="geometry" />
        </mxCell>
        <mxCell id="_bCDL0HvLNY4-5tJD9Ad-60" value="Clique sur &lt;b&gt;Enregistrer&lt;/b&gt;" style="html=1;dashed=0;rounded=1;absoluteArcSize=1;arcSize=12;verticalAlign=middle;align=center;whiteSpace=wrap;" parent="ZWHLpiZSWTz1R2_QuIJr-2" vertex="1">
          <mxGeometry x="230" y="910" width="160" height="30" as="geometry" />
        </mxCell>
        <mxCell id="_bCDL0HvLNY4-5tJD9Ad-61" value="*" style="text;resizeWidth=0;resizeHeight=0;points=[];part=1;verticalAlign=middle;align=center;html=1;" parent="_bCDL0HvLNY4-5tJD9Ad-60" vertex="1">
          <mxGeometry x="1" y="0.5" width="20" height="20" relative="1" as="geometry">
            <mxPoint x="-20" y="-10" as="offset" />
          </mxGeometry>
        </mxCell>
        <mxCell id="_bCDL0HvLNY4-5tJD9Ad-62" value="" style="html=1;verticalAlign=bottom;endArrow=block;curved=0;rounded=0;exitX=1;exitY=0.5;exitDx=0;exitDy=0;entryX=0;entryY=0.5;entryDx=0;entryDy=0;" parent="ZWHLpiZSWTz1R2_QuIJr-2" source="_bCDL0HvLNY4-5tJD9Ad-59" target="_bCDL0HvLNY4-5tJD9Ad-60" edge="1">
          <mxGeometry width="80" relative="1" as="geometry">
            <mxPoint x="160" y="924.5" as="sourcePoint" />
            <mxPoint x="210" y="924.5" as="targetPoint" />
          </mxGeometry>
        </mxCell>
        <mxCell id="_bCDL0HvLNY4-5tJD9Ad-72" value="message erreur&amp;nbsp;&lt;span style=&quot;color: rgb(204, 0, 0); font-family: Tahoma; background-color: rgb(233, 199, 199);&quot;&gt;&lt;i&gt;&lt;b&gt;Le nombre d&#39;heure de nuit ne peut excéder 12 heure(s)&lt;/b&gt;&lt;/i&gt;&lt;/span&gt;" style="html=1;dashed=0;rounded=1;absoluteArcSize=1;arcSize=12;verticalAlign=middle;align=center;whiteSpace=wrap;fillColor=#FFE6CC;" parent="ZWHLpiZSWTz1R2_QuIJr-2" vertex="1">
          <mxGeometry x="220" y="830" width="430" height="30" as="geometry" />
        </mxCell>
        <mxCell id="_bCDL0HvLNY4-5tJD9Ad-73" value="*" style="text;resizeWidth=0;resizeHeight=0;points=[];part=1;verticalAlign=middle;align=center;html=1;" parent="_bCDL0HvLNY4-5tJD9Ad-72" vertex="1">
          <mxGeometry x="1" y="0.5" width="20" height="20" relative="1" as="geometry">
            <mxPoint x="-20" y="-10" as="offset" />
          </mxGeometry>
        </mxCell>
        <mxCell id="_bCDL0HvLNY4-5tJD9Ad-79" value="message erreur&amp;nbsp;&lt;div&gt;&lt;i&gt;&lt;b&gt;(&lt;span style=&quot;color: rgb(204, 0, 0); font-family: Tahoma; background-color: rgb(233, 199, 199);&quot;&gt;Veuillez sélectionner le service.&lt;/span&gt;&lt;br style=&quot;color: rgb(204, 0, 0); font-family: Tahoma;&quot;&gt;&lt;span style=&quot;color: rgb(204, 0, 0); font-family: Tahoma; background-color: rgb(233, 199, 199);&quot;&gt;Veuillez sélectionner le valideur.&lt;/span&gt;&lt;br style=&quot;color: rgb(204, 0, 0); font-family: Tahoma;&quot;&gt;&lt;span style=&quot;color: rgb(204, 0, 0); font-family: Tahoma; background-color: rgb(233, 199, 199);&quot;&gt;Veuillez indiquer les quantités de MOJ par qualification.)&lt;/span&gt;&lt;/b&gt;&lt;/i&gt;&lt;/div&gt;" style="html=1;dashed=0;rounded=1;absoluteArcSize=1;arcSize=12;verticalAlign=middle;align=center;whiteSpace=wrap;fillColor=#FFE6CC;" parent="ZWHLpiZSWTz1R2_QuIJr-2" vertex="1">
          <mxGeometry x="190" y="1113" width="460" height="77" as="geometry" />
        </mxCell>
        <mxCell id="_bCDL0HvLNY4-5tJD9Ad-80" value="*" style="text;resizeWidth=0;resizeHeight=0;points=[];part=1;verticalAlign=middle;align=center;html=1;" parent="_bCDL0HvLNY4-5tJD9Ad-79" vertex="1">
          <mxGeometry x="1" y="0.5" width="20" height="20" relative="1" as="geometry">
            <mxPoint x="-20" y="-10" as="offset" />
          </mxGeometry>
        </mxCell>
        <mxCell id="_bCDL0HvLNY4-5tJD9Ad-88" value="Commande Enregistrée" style="html=1;dashed=0;rounded=1;absoluteArcSize=1;arcSize=20;verticalAlign=middle;align=center;whiteSpace=wrap;" parent="ZWHLpiZSWTz1R2_QuIJr-2" vertex="1">
          <mxGeometry x="200" y="1300" width="160" height="50" as="geometry" />
        </mxCell>
        <mxCell id="_bCDL0HvLNY4-5tJD9Ad-89" value="*" style="text;resizeWidth=0;resizeHeight=0;points=[];part=1;verticalAlign=middle;align=center;html=1;" parent="_bCDL0HvLNY4-5tJD9Ad-88" vertex="1">
          <mxGeometry x="1" y="0.5" width="20" height="20" relative="1" as="geometry">
            <mxPoint x="-20" y="-10" as="offset" />
          </mxGeometry>
        </mxCell>
        <mxCell id="_bCDL0HvLNY4-5tJD9Ad-87" value="OUI" style="edgeStyle=orthogonalEdgeStyle;html=1;align=left;verticalAlign=top;endArrow=open;endSize=8;strokeColor=#030000;rounded=0;exitX=0;exitY=0.5;exitDx=0;exitDy=0;entryX=1.044;entryY=0.524;entryDx=0;entryDy=0;entryPerimeter=0;" parent="ZWHLpiZSWTz1R2_QuIJr-2" target="_bCDL0HvLNY4-5tJD9Ad-89" edge="1">
          <mxGeometry x="-0.7334" y="-20" relative="1" as="geometry">
            <mxPoint x="370" y="1330" as="targetPoint" />
            <mxPoint x="1710" y="1295" as="sourcePoint" />
            <mxPoint as="offset" />
            <Array as="points">
              <mxPoint x="1675" y="1295" />
              <mxPoint x="1675" y="1290" />
              <mxPoint x="1470" y="1290" />
              <mxPoint x="1470" y="1312" />
              <mxPoint x="1320" y="1312" />
              <mxPoint x="1320" y="1333" />
              <mxPoint x="400" y="1333" />
              <mxPoint x="400" y="1330" />
              <mxPoint x="390" y="1330" />
              <mxPoint x="390" y="1325" />
            </Array>
          </mxGeometry>
        </mxCell>
        <mxCell id="_bCDL0HvLNY4-5tJD9Ad-90" value="message erreur" style="html=1;dashed=0;rounded=1;absoluteArcSize=1;arcSize=20;verticalAlign=middle;align=center;whiteSpace=wrap;fillColor=#FFE6CC;" parent="ZWHLpiZSWTz1R2_QuIJr-2" vertex="1">
          <mxGeometry x="200.5" y="1400" width="160" height="50" as="geometry" />
        </mxCell>
        <mxCell id="_bCDL0HvLNY4-5tJD9Ad-91" value="*" style="text;resizeWidth=0;resizeHeight=0;points=[];part=1;verticalAlign=middle;align=center;html=1;" parent="_bCDL0HvLNY4-5tJD9Ad-90" vertex="1">
          <mxGeometry x="1" y="0.5" width="20" height="20" relative="1" as="geometry">
            <mxPoint x="-20" y="-10" as="offset" />
          </mxGeometry>
        </mxCell>
        <mxCell id="ZWHLpiZSWTz1R2_QuIJr-15" value="Système" style="swimlane;whiteSpace=wrap;html=1;strokeColor=default;fillColor=#FFFFFF;" parent="ZWHLpiZSWTz1R2_QuIJr-1" vertex="1">
          <mxGeometry x="1550" y="-730" width="490" height="1520" as="geometry" />
        </mxCell>
        <mxCell id="_bCDL0HvLNY4-5tJD9Ad-83" value="Déclanche la méthode&amp;nbsp;&lt;span style=&quot;font-family: Consolas, &amp;quot;Courier New&amp;quot;, monospace; font-size: 14px; white-space: pre; color: rgb(130, 170, 255); font-style: italic;&quot;&gt;Master_SaveButton_Click ()&lt;/span&gt;" style="html=1;dashed=0;rounded=1;absoluteArcSize=1;arcSize=12;verticalAlign=middle;align=center;whiteSpace=wrap;fillColor=#FFFFFF;" parent="ZWHLpiZSWTz1R2_QuIJr-15" vertex="1">
          <mxGeometry x="50" y="1085" width="371" height="77" as="geometry" />
        </mxCell>
        <mxCell id="_bCDL0HvLNY4-5tJD9Ad-84" value="*" style="text;resizeWidth=0;resizeHeight=0;points=[];part=1;verticalAlign=middle;align=center;html=1;" parent="_bCDL0HvLNY4-5tJD9Ad-83" vertex="1">
          <mxGeometry x="1" y="0.5" width="20" height="20" relative="1" as="geometry">
            <mxPoint x="-20" y="-10" as="offset" />
          </mxGeometry>
        </mxCell>
        <mxCell id="_bCDL0HvLNY4-5tJD9Ad-86" value="Commande Enregistrer  en BD ?" style="rhombus;fontStyle=2" parent="ZWHLpiZSWTz1R2_QuIJr-15" vertex="1">
          <mxGeometry x="150" y="1200" width="190" height="190" as="geometry" />
        </mxCell>
        <mxCell id="_bCDL0HvLNY4-5tJD9Ad-92" value="" style="html=1;verticalAlign=bottom;endArrow=block;curved=0;rounded=0;entryX=0.5;entryY=0;entryDx=0;entryDy=0;exitX=0.531;exitY=0.993;exitDx=0;exitDy=0;exitPerimeter=0;" parent="ZWHLpiZSWTz1R2_QuIJr-15" source="_bCDL0HvLNY4-5tJD9Ad-83" target="_bCDL0HvLNY4-5tJD9Ad-86" edge="1">
          <mxGeometry width="80" relative="1" as="geometry">
            <mxPoint x="220" y="1180" as="sourcePoint" />
            <mxPoint x="292" y="1180" as="targetPoint" />
          </mxGeometry>
        </mxCell>
        <mxCell id="ZWHLpiZSWTz1R2_QuIJr-122" value="Control" style="swimlane;whiteSpace=wrap;html=1;" parent="ZWHLpiZSWTz1R2_QuIJr-1" vertex="1">
          <mxGeometry x="780" y="-730" width="770" height="1520" as="geometry" />
        </mxCell>
        <mxCell id="_bCDL0HvLNY4-5tJD9Ad-51" value="&lt;span style=&quot;font-size: 10px;&quot;&gt;Le choix d&#39;une prestation à réaliser,&amp;nbsp; définir la valeur de la mesure &lt;b&gt;&lt;i&gt;Unite_mesure&lt;/i&gt;&lt;/b&gt;&lt;/span&gt;" style="rounded=1;whiteSpace=wrap;html=1;" parent="ZWHLpiZSWTz1R2_QuIJr-122" vertex="1">
          <mxGeometry x="90" y="690" width="160" height="54" as="geometry" />
        </mxCell>
        <mxCell id="_bCDL0HvLNY4-5tJD9Ad-63" value="" style="html=1;points=[];perimeter=orthogonalPerimeter;fillColor=strokeColor;" parent="ZWHLpiZSWTz1R2_QuIJr-122" vertex="1">
          <mxGeometry x="40" y="840" width="9" height="170" as="geometry" />
        </mxCell>
        <mxCell id="_bCDL0HvLNY4-5tJD9Ad-65" value="Service_User : non défini&#xa;ou&#xa;Validateur : non défini" style="rhombus;fontStyle=2" parent="ZWHLpiZSWTz1R2_QuIJr-122" vertex="1">
          <mxGeometry x="255" y="1040" width="170" height="170" as="geometry" />
        </mxCell>
        <mxCell id="_bCDL0HvLNY4-5tJD9Ad-66" value="est_de_nuit = oui&#xa;&amp;&amp; &#xa;unite_mesure = &quot;heure&quot;&#xa;&amp;&amp; &#xa;qteUO_reelle &gt; 12" style="rhombus;" parent="ZWHLpiZSWTz1R2_QuIJr-122" vertex="1">
          <mxGeometry x="120" y="830" width="180" height="180" as="geometry" />
        </mxCell>
        <mxCell id="_bCDL0HvLNY4-5tJD9Ad-68" value="" style="html=1;verticalAlign=bottom;endArrow=block;curved=0;rounded=0;entryX=0;entryY=0.5;entryDx=0;entryDy=0;exitX=0.929;exitY=0.469;exitDx=0;exitDy=0;exitPerimeter=0;" parent="ZWHLpiZSWTz1R2_QuIJr-122" source="_bCDL0HvLNY4-5tJD9Ad-63" target="_bCDL0HvLNY4-5tJD9Ad-66" edge="1">
          <mxGeometry width="80" relative="1" as="geometry">
            <mxPoint x="50" y="920" as="sourcePoint" />
            <mxPoint x="52" y="928" as="targetPoint" />
          </mxGeometry>
        </mxCell>
        <mxCell id="_bCDL0HvLNY4-5tJD9Ad-70" value="NON" style="edgeStyle=orthogonalEdgeStyle;html=1;align=left;verticalAlign=bottom;endArrow=open;endSize=8;strokeColor=#030000;rounded=0;fillColor=#030000;" parent="ZWHLpiZSWTz1R2_QuIJr-122" edge="1">
          <mxGeometry x="-1" relative="1" as="geometry">
            <mxPoint x="340" y="1040" as="targetPoint" />
            <mxPoint x="300" y="919.72" as="sourcePoint" />
          </mxGeometry>
        </mxCell>
        <mxCell id="_bCDL0HvLNY4-5tJD9Ad-76" value="&lt;font style=&quot;font-size: 10px;&quot;&gt;la mission n&#39;a pas été identifié&lt;/font&gt;" style="shape=note2;boundedLbl=1;whiteSpace=wrap;html=1;size=7;verticalAlign=top;align=center;strokeColor=#FFF2CC;fillColor=#FFF2CC;" parent="ZWHLpiZSWTz1R2_QuIJr-122" vertex="1">
          <mxGeometry x="370" y="1050" width="150" height="35" as="geometry" />
        </mxCell>
        <mxCell id="_bCDL0HvLNY4-5tJD9Ad-77" value="&lt;span style=&quot;font-size: 10px;&quot;&gt;Le choix du valideur de service, permet d&#39;identifier &lt;i&gt;&lt;b&gt;Id_Mission&lt;/b&gt;&lt;/i&gt;&lt;/span&gt;" style="rounded=1;whiteSpace=wrap;html=1;" parent="ZWHLpiZSWTz1R2_QuIJr-122" vertex="1">
          <mxGeometry x="90" y="560" width="160" height="54" as="geometry" />
        </mxCell>
        <mxCell id="_bCDL0HvLNY4-5tJD9Ad-52" value="" style="html=1;verticalAlign=bottom;endArrow=block;curved=0;rounded=0;entryX=0.004;entryY=0.582;entryDx=0;entryDy=0;exitX=1;exitY=0.5;exitDx=0;exitDy=0;entryPerimeter=0;" parent="ZWHLpiZSWTz1R2_QuIJr-1" source="_bCDL0HvLNY4-5tJD9Ad-19" target="_bCDL0HvLNY4-5tJD9Ad-51" edge="1">
          <mxGeometry width="80" relative="1" as="geometry">
            <mxPoint x="451" y="-50" as="sourcePoint" />
            <mxPoint x="476" y="-34" as="targetPoint" />
          </mxGeometry>
        </mxCell>
        <mxCell id="_bCDL0HvLNY4-5tJD9Ad-64" value="" style="html=1;verticalAlign=bottom;endArrow=block;curved=0;rounded=0;exitX=1.014;exitY=0.436;exitDx=0;exitDy=0;entryX=0.179;entryY=0.465;entryDx=0;entryDy=0;entryPerimeter=0;exitPerimeter=0;" parent="ZWHLpiZSWTz1R2_QuIJr-1" source="_bCDL0HvLNY4-5tJD9Ad-61" target="_bCDL0HvLNY4-5tJD9Ad-63" edge="1">
          <mxGeometry width="80" relative="1" as="geometry">
            <mxPoint x="400" y="194.5" as="sourcePoint" />
            <mxPoint x="480" y="194.5" as="targetPoint" />
          </mxGeometry>
        </mxCell>
        <mxCell id="_bCDL0HvLNY4-5tJD9Ad-71" value="OUI" style="edgeStyle=orthogonalEdgeStyle;html=1;align=left;verticalAlign=top;endArrow=open;endSize=8;strokeColor=#030000;rounded=0;exitX=0.5;exitY=0;exitDx=0;exitDy=0;entryX=0.933;entryY=0.442;entryDx=0;entryDy=0;entryPerimeter=0;" parent="ZWHLpiZSWTz1R2_QuIJr-1" source="_bCDL0HvLNY4-5tJD9Ad-66" target="_bCDL0HvLNY4-5tJD9Ad-73" edge="1">
          <mxGeometry x="-0.7334" y="-20" relative="1" as="geometry">
            <mxPoint x="920" y="360" as="targetPoint" />
            <mxPoint as="offset" />
          </mxGeometry>
        </mxCell>
        <mxCell id="_bCDL0HvLNY4-5tJD9Ad-78" value="" style="html=1;verticalAlign=bottom;endArrow=block;curved=0;rounded=0;entryX=0;entryY=0.5;entryDx=0;entryDy=0;exitX=1;exitY=0.5;exitDx=0;exitDy=0;" parent="ZWHLpiZSWTz1R2_QuIJr-1" source="_bCDL0HvLNY4-5tJD9Ad-15" target="_bCDL0HvLNY4-5tJD9Ad-77" edge="1">
          <mxGeometry width="80" relative="1" as="geometry">
            <mxPoint x="585.5" y="-140" as="sourcePoint" />
            <mxPoint x="870.5" y="-138" as="targetPoint" />
          </mxGeometry>
        </mxCell>
        <mxCell id="_bCDL0HvLNY4-5tJD9Ad-81" value="OUI" style="edgeStyle=orthogonalEdgeStyle;html=1;align=left;verticalAlign=top;endArrow=open;endSize=8;strokeColor=#030000;rounded=0;exitX=0;exitY=0.5;exitDx=0;exitDy=0;entryX=1;entryY=0.521;entryDx=0;entryDy=0;entryPerimeter=0;" parent="ZWHLpiZSWTz1R2_QuIJr-1" source="_bCDL0HvLNY4-5tJD9Ad-65" target="_bCDL0HvLNY4-5tJD9Ad-79" edge="1">
          <mxGeometry x="-0.7334" y="-20" relative="1" as="geometry">
            <mxPoint x="654" y="402" as="targetPoint" />
            <mxPoint x="995" y="388" as="sourcePoint" />
            <mxPoint as="offset" />
            <Array as="points">
              <mxPoint x="1035" y="380" />
              <mxPoint x="830" y="380" />
              <mxPoint x="830" y="402" />
              <mxPoint x="680" y="402" />
              <mxPoint x="680" y="423" />
            </Array>
          </mxGeometry>
        </mxCell>
        <mxCell id="_bCDL0HvLNY4-5tJD9Ad-82" value="NON" style="edgeStyle=orthogonalEdgeStyle;html=1;align=left;verticalAlign=bottom;endArrow=open;endSize=8;strokeColor=#030000;rounded=0;exitX=0.5;exitY=1;exitDx=0;exitDy=0;entryX=0;entryY=0.5;entryDx=0;entryDy=0;" parent="ZWHLpiZSWTz1R2_QuIJr-1" source="_bCDL0HvLNY4-5tJD9Ad-65" target="_bCDL0HvLNY4-5tJD9Ad-83" edge="1">
          <mxGeometry x="-0.9659" y="-22" relative="1" as="geometry">
            <mxPoint x="1160" y="620.1399999999999" as="targetPoint" />
            <mxPoint x="1120" y="499.8600000000001" as="sourcePoint" />
            <mxPoint x="12" y="20" as="offset" />
          </mxGeometry>
        </mxCell>
        <mxCell id="_bCDL0HvLNY4-5tJD9Ad-93" value="NON" style="edgeStyle=orthogonalEdgeStyle;html=1;align=left;verticalAlign=bottom;endArrow=open;endSize=8;strokeColor=#030000;rounded=0;exitX=0.5;exitY=1;exitDx=0;exitDy=0;entryX=0.975;entryY=0.267;entryDx=0;entryDy=0;entryPerimeter=0;" parent="ZWHLpiZSWTz1R2_QuIJr-1" source="_bCDL0HvLNY4-5tJD9Ad-86" target="_bCDL0HvLNY4-5tJD9Ad-91" edge="1">
          <mxGeometry x="-0.9864" y="5" relative="1" as="geometry">
            <mxPoint x="1620" y="650" as="targetPoint" />
            <mxPoint x="1140" y="736" as="sourcePoint" />
            <mxPoint as="offset" />
          </mxGeometry>
        </mxCell>
      </root>
    </mxGraphModel>
  </diagram>
</mxfile>
